<svg viewBox="0 0 104 29" fill="none" xmlns="http://www.w3.org/2000/svg">
  <path d="M2.18149 7.32881L2.49723 9.35334C3.53057 7.83257 4.88922 7.07218 6.57318 7.07218C7.10898 7.07218 7.74046 7.16723 8.46763 7.35733L8.03707 9.75254C7.21423 9.56244 6.57318 9.46739 6.11391 9.46739C5.31021 9.46739 4.64045 9.62897 4.10465 9.95214C3.58798 10.2563 3.11915 10.7791 2.69816 11.5204V21.9852H0V7.32881H2.18149Z" fill="#2f464c" />
  <path d="M10.2051 14.6285C10.2051 12.2333 10.8079 10.3799 12.0134 9.06819C13.219 7.73752 14.9221 7.07218 17.1227 7.07218C19.2851 7.07218 20.8447 7.71851 21.8015 9.01116C22.7774 10.2848 23.2653 12.1287 23.2653 14.543V14.9992H12.9607C12.9989 16.653 13.3912 17.9172 14.1375 18.7916C14.8838 19.6661 15.9554 20.1033 17.3524 20.1033C18.1178 20.1033 18.8545 20.0177 19.5626 19.8466C20.2706 19.6565 21.0552 19.3714 21.9163 18.9912L22.6913 20.8161C21.7153 21.3104 20.7872 21.6716 19.907 21.8997C19.0267 22.1088 18.1274 22.2133 17.2088 22.2133C14.9891 22.2133 13.2668 21.548 12.0422 20.2173C10.8175 18.8867 10.2051 17.0237 10.2051 14.6285ZM17.1227 9.18225C15.9937 9.18225 15.0848 9.50541 14.3959 10.1517C13.7261 10.7981 13.286 11.7485 13.0755 13.0032H20.4237C20.2897 11.6915 19.9548 10.7315 19.419 10.1232C18.8832 9.49591 18.1178 9.18225 17.1227 9.18225Z" fill="#2f464c" />
  <path d="M33.5718 7.07218C35.6193 7.07218 37.2076 7.709 38.3366 8.98265C39.4848 10.2373 40.0589 12.0432 40.0589 14.4004C40.0589 16.8526 39.3796 18.7726 38.0209 20.1603C36.6814 21.529 34.8348 22.2133 32.4811 22.2133C31.3712 22.2133 30.3474 22.0803 29.4098 21.8141V28.9713H26.7116V7.32881H28.8931L29.2375 9.0967C29.7542 8.43137 30.3761 7.92761 31.1033 7.58544C31.8496 7.24327 32.6724 7.07218 33.5718 7.07218ZM32.4524 20.1033C33.9641 20.1033 35.1505 19.609 36.0116 18.6205C36.8727 17.613 37.3033 16.2063 37.3033 14.4004C37.3033 12.7275 36.9589 11.4444 36.27 10.5509C35.6002 9.63848 34.6434 9.18225 33.3996 9.18225C32.4237 9.18225 31.5817 9.43888 30.8736 9.95214C30.1848 10.4654 29.6968 11.1783 29.4098 12.0907V19.6756C30.3857 19.9607 31.3999 20.1033 32.4524 20.1033Z" fill="#2f464c" />
  <path d="M43.8132 0.342773H46.454V21.9852H43.8132V0.342773Z" fill="#2f464c" />
  <path d="M51.3816 1.79701H54.0224V4.27777H51.3816V1.79701ZM51.3816 7.32881H54.0224V21.9852H51.3816V7.32881Z" fill="#2f464c" />
  <path d="M57.8593 15.0562C57.8593 13.4784 58.1559 12.0907 58.7491 10.8931C59.3614 9.69551 60.2417 8.76404 61.3898 8.0987C62.5571 7.41435 63.9349 7.07218 65.5232 7.07218C67.5707 7.07218 69.4174 7.43336 71.063 8.15573V28.9998L68.3649 28.9713V20.474C67.3124 21.6335 65.925 22.2133 64.2028 22.2133C62.3658 22.2133 60.8445 21.624 59.6389 20.4454C58.4525 19.2478 57.8593 17.4514 57.8593 15.0562ZM60.5287 15.0562C60.5287 16.0637 60.6914 16.9572 61.0167 17.7366C61.3611 18.497 61.8204 19.0958 62.3945 19.533C62.9877 19.9512 63.6383 20.1603 64.3463 20.1603C65.418 20.1603 66.2695 19.8657 66.901 19.2764C67.5516 18.6871 68.0396 18.0122 68.3649 17.2518V12.547L68.4223 9.55294C67.5612 9.26779 66.5948 9.12522 65.5232 9.12522C64.5664 9.12522 63.7053 9.36284 62.9399 9.83808C62.1936 10.2943 61.6003 10.9692 61.1602 11.8626C60.7392 12.7561 60.5287 13.8206 60.5287 15.0562Z" fill="#2f464c" />
  <path d="M88.2501 7.32881V21.9852H86.0399L85.7242 19.9607C84.4421 21.4815 82.7773 22.2419 80.7297 22.2419C79.0649 22.2419 77.8115 21.8046 76.9695 20.9302C76.1275 20.0367 75.7066 18.7346 75.7066 17.0237V7.32881H78.4047V16.8241C78.4047 17.9837 78.6248 18.8296 79.0649 19.3619C79.5242 19.8752 80.2513 20.1318 81.2464 20.1318C82.1458 20.1318 82.9686 19.9322 83.7149 19.533C84.4612 19.1148 85.0736 18.5445 85.552 17.8221V7.32881H88.2501Z" fill="#2f464c" />
  <path d="M91.8583 18.0217C91.8583 16.4629 92.4898 15.2558 93.7527 14.4004C95.0157 13.545 96.8049 13.1172 99.1204 13.1172H101.302V12.547C101.302 11.3303 101.044 10.4654 100.527 9.95214C100.029 9.43888 99.1682 9.18225 97.9435 9.18225C97.1589 9.18225 96.4605 9.25829 95.8481 9.41036C95.2358 9.54343 94.4512 9.81907 93.4944 10.2373L92.6907 8.38384C94.4895 7.5094 96.2595 7.07218 98.0009 7.07218C100.087 7.07218 101.608 7.51891 102.565 8.41236C103.522 9.2868 104 10.684 104 12.604V21.9852H101.905C101.885 21.9092 101.847 21.7286 101.79 21.4435C101.732 21.1393 101.646 20.7496 101.531 20.2744C100.154 21.6431 98.5463 22.3274 96.7092 22.3274C95.2358 22.3274 94.0589 21.9377 93.1787 21.1583C92.2984 20.3789 91.8583 19.3334 91.8583 18.0217ZM94.5564 17.9647C94.5564 18.6871 94.7861 19.2478 95.2453 19.647C95.7046 20.0272 96.3648 20.2173 97.2259 20.2173C97.9913 20.2173 98.7376 20.0462 99.4648 19.7041C100.192 19.3429 100.804 18.8581 101.302 18.2498V15.1133H99.2926C97.7234 15.1133 96.537 15.3509 95.7333 15.8261C94.9487 16.3013 94.5564 17.0142 94.5564 17.9647Z" fill="#2f464c" />
</svg>
