<svg viewBox="0 0 104 41" fill="none" xmlns="http://www.w3.org/2000/svg">
  <path d="M2.18149 19.3288L2.49723 21.3533C3.53057 19.8326 4.88922 19.0722 6.57318 19.0722C7.10898 19.0722 7.74046 19.1672 8.46763 19.3573L8.03707 21.7525C7.21423 21.5624 6.57318 21.4674 6.11391 21.4674C5.31021 21.4674 4.64045 21.629 4.10465 21.9521C3.58798 22.2563 3.11915 22.7791 2.69816 23.5204V33.9852H0V19.3288H2.18149Z" fill="#2f464c" />
  <path d="M10.2051 26.6285C10.2051 24.2333 10.8079 22.3799 12.0134 21.0682C13.219 19.7375 14.9221 19.0722 17.1227 19.0722C19.2851 19.0722 20.8447 19.7185 21.8015 21.0112C22.7774 22.2848 23.2653 24.1287 23.2653 26.543V26.9992H12.9607C12.9989 28.653 13.3912 29.9172 14.1375 30.7916C14.8838 31.6661 15.9554 32.1033 17.3524 32.1033C18.1178 32.1033 18.8545 32.0177 19.5626 31.8466C20.2706 31.6565 21.0552 31.3714 21.9163 30.9912L22.6913 32.8161C21.7153 33.3104 20.7872 33.6716 19.907 33.8997C19.0267 34.1088 18.1274 34.2133 17.2088 34.2133C14.9891 34.2133 13.2668 33.548 12.0422 32.2173C10.8175 30.8867 10.2051 29.0237 10.2051 26.6285ZM17.1227 21.1822C15.9937 21.1822 15.0848 21.5054 14.3959 22.1517C13.7261 22.7981 13.286 23.7485 13.0755 25.0032H20.4237C20.2897 23.6915 19.9548 22.7315 19.419 22.1232C18.8832 21.4959 18.1178 21.1822 17.1227 21.1822Z" fill="#2f464c" />
  <path d="M33.5718 19.0722C35.6193 19.0722 37.2076 19.709 38.3366 20.9826C39.4848 22.2373 40.0589 24.0432 40.0589 26.4004C40.0589 28.8526 39.3796 30.7726 38.0209 32.1603C36.6814 33.529 34.8348 34.2133 32.4811 34.2133C31.3712 34.2133 30.3474 34.0803 29.4098 33.8141V40.9713H26.7116V19.3288H28.8931L29.2375 21.0967C29.7542 20.4314 30.3761 19.9276 31.1033 19.5854C31.8496 19.2433 32.6724 19.0722 33.5718 19.0722ZM32.4524 32.1033C33.9641 32.1033 35.1505 31.609 36.0116 30.6205C36.8727 29.613 37.3033 28.2063 37.3033 26.4004C37.3033 24.7275 36.9589 23.4444 36.27 22.5509C35.6002 21.6385 34.6434 21.1822 33.3996 21.1822C32.4237 21.1822 31.5817 21.4389 30.8736 21.9521C30.1848 22.4654 29.6968 23.1783 29.4098 24.0907V31.6756C30.3857 31.9607 31.3999 32.1033 32.4524 32.1033Z" fill="#2f464c" />
  <path d="M43.8132 12.3428H46.454V33.9852H43.8132V12.3428Z" fill="#2f464c" />
  <path d="M51.3816 13.797H54.0224V16.2778H51.3816V13.797ZM51.3816 19.3288H54.0224V33.9852H51.3816V19.3288Z" fill="#2f464c" />
  <path d="M57.8593 27.0562C57.8593 25.4784 58.1559 24.0907 58.7491 22.8931C59.3614 21.6955 60.2417 20.764 61.3898 20.0987C62.5571 19.4144 63.9349 19.0722 65.5232 19.0722C67.5707 19.0722 69.4174 19.4334 71.063 20.1557V40.9998L68.3649 40.9713V32.474C67.3124 33.6335 65.925 34.2133 64.2028 34.2133C62.3658 34.2133 60.8445 33.624 59.6389 32.4454C58.4525 31.2478 57.8593 29.4514 57.8593 27.0562ZM60.5287 27.0562C60.5287 28.0637 60.6914 28.9572 61.0167 29.7366C61.3611 30.497 61.8204 31.0958 62.3945 31.533C62.9877 31.9512 63.6383 32.1603 64.3463 32.1603C65.418 32.1603 66.2695 31.8657 66.901 31.2764C67.5516 30.6871 68.0396 30.0122 68.3649 29.2518V24.547L68.4223 21.5529C67.5612 21.2678 66.5948 21.1252 65.5232 21.1252C64.5664 21.1252 63.7053 21.3628 62.9399 21.8381C62.1936 22.2943 61.6003 22.9692 61.1602 23.8626C60.7392 24.7561 60.5287 25.8206 60.5287 27.0562Z" fill="#2f464c" />
  <path d="M88.2501 19.3288V33.9852H86.0399L85.7242 31.9607C84.4421 33.4815 82.7773 34.2419 80.7297 34.2419C79.0649 34.2419 77.8115 33.8046 76.9695 32.9302C76.1275 32.0367 75.7066 30.7346 75.7066 29.0237V19.3288H78.4047V28.8241C78.4047 29.9837 78.6248 30.8296 79.0649 31.3619C79.5242 31.8752 80.2513 32.1318 81.2464 32.1318C82.1458 32.1318 82.9686 31.9322 83.7149 31.533C84.4612 31.1148 85.0736 30.5445 85.552 29.8221V19.3288H88.2501Z" fill="#2f464c" />
  <path d="M91.8583 30.0217C91.8583 28.4629 92.4898 27.2558 93.7527 26.4004C95.0157 25.545 96.8049 25.1172 99.1204 25.1172H101.302V24.547C101.302 23.3303 101.044 22.4654 100.527 21.9521C100.029 21.4389 99.1682 21.1822 97.9435 21.1822C97.1589 21.1822 96.4605 21.2583 95.8481 21.4104C95.2358 21.5434 94.4512 21.8191 93.4944 22.2373L92.6907 20.3838C94.4895 19.5094 96.2595 19.0722 98.0009 19.0722C100.087 19.0722 101.608 19.5189 102.565 20.4124C103.522 21.2868 104 22.684 104 24.604V33.9852H101.905C101.885 33.9092 101.847 33.7286 101.79 33.4435C101.732 33.1393 101.646 32.7496 101.531 32.2744C100.154 33.6431 98.5463 34.3274 96.7092 34.3274C95.2358 34.3274 94.0589 33.9377 93.1787 33.1583C92.2984 32.3789 91.8583 31.3334 91.8583 30.0217ZM94.5564 29.9647C94.5564 30.6871 94.7861 31.2478 95.2453 31.647C95.7046 32.0272 96.3648 32.2173 97.2259 32.2173C97.9913 32.2173 98.7376 32.0462 99.4648 31.7041C100.192 31.3429 100.804 30.8581 101.302 30.2498V27.1133H99.2926C97.7234 27.1133 96.537 27.3509 95.7333 27.8261C94.9487 28.3013 94.5564 29.0142 94.5564 29.9647Z" fill="#2f464c" />
  <mask id="mask0_1201_251" style="mask-type:alpha" maskUnits="userSpaceOnUse" x="0" y="0" width="104" height="29">
    <path d="M2.18149 6.98604L2.49723 9.01056C3.53057 7.48979 4.88922 6.72941 6.57318 6.72941C7.10898 6.72941 7.74046 6.82446 8.46763 7.01455L8.03707 9.40976C7.21423 9.21967 6.57318 9.12462 6.11391 9.12462C5.31021 9.12462 4.64045 9.2862 4.10465 9.60936C3.58798 9.91352 3.11915 10.4363 2.69816 11.1777V21.6425H0V6.98604H2.18149Z" fill="#2f464c" />
    <path d="M10.2051 14.2857C10.2051 11.8905 10.8079 10.0371 12.0134 8.72542C13.219 7.39474 14.9221 6.72941 17.1227 6.72941C19.2851 6.72941 20.8447 7.37573 21.8015 8.66839C22.7774 9.94203 23.2653 11.786 23.2653 14.2002V14.6564H12.9607C12.9989 16.3103 13.3912 17.5744 14.1375 18.4488C14.8838 19.3233 15.9554 19.7605 17.3524 19.7605C18.1178 19.7605 18.8545 19.675 19.5626 19.5039C20.2706 19.3138 21.0552 19.0286 21.9163 18.6484L22.6913 20.4734C21.7153 20.9676 20.7872 21.3288 19.907 21.5569C19.0267 21.766 18.1274 21.8706 17.2088 21.8706C14.9891 21.8706 13.2668 21.2052 12.0422 19.8746C10.8175 18.5439 10.2051 16.6809 10.2051 14.2857ZM17.1227 8.83947C15.9937 8.83947 15.0848 9.16264 14.3959 9.80897C13.7261 10.4553 13.286 11.4058 13.0755 12.6604H20.4237C20.2897 11.3487 19.9548 10.3888 19.419 9.78045C18.8832 9.15313 18.1178 8.83947 17.1227 8.83947Z" fill="#2f464c" />
    <path d="M33.5718 6.72941C35.6193 6.72941 37.2076 7.36623 38.3366 8.63987C39.4848 9.89451 40.0589 11.7004 40.0589 14.0576C40.0589 16.5099 39.3796 18.4298 38.0209 19.8175C36.6814 21.1862 34.8348 21.8706 32.4811 21.8706C31.3712 21.8706 30.3474 21.7375 29.4098 21.4714V28.6285H26.7116V6.98604H28.8931L29.2375 8.75393C29.7542 8.08859 30.3761 7.58484 31.1033 7.24267C31.8496 6.90049 32.6724 6.72941 33.5718 6.72941ZM32.4524 19.7605C33.9641 19.7605 35.1505 19.2663 36.0116 18.2778C36.8727 17.2702 37.3033 15.8635 37.3033 14.0576C37.3033 12.3848 36.9589 11.1016 36.27 10.2082C35.6002 9.29571 34.6434 8.83947 33.3996 8.83947C32.4237 8.83947 31.5817 9.0961 30.8736 9.60936C30.1848 10.1226 29.6968 10.8355 29.4098 11.7479V19.3328C30.3857 19.6179 31.3999 19.7605 32.4524 19.7605Z" fill="#2f464c" />
    <path d="M43.8132 0H46.454V21.6425H43.8132V0Z" fill="#2f464c" />
    <path d="M51.3816 1.45424H54.0224V3.93499H51.3816V1.45424ZM51.3816 6.98604H54.0224V21.6425H51.3816V6.98604Z" fill="#2f464c" />
    <path d="M57.8593 14.7134C57.8593 13.1356 58.1559 11.7479 58.7491 10.5503C59.3614 9.35273 60.2417 8.42126 61.3898 7.75593C62.5571 7.07158 63.9349 6.72941 65.5232 6.72941C67.5707 6.72941 69.4174 7.09059 71.063 7.81295V28.657L68.3649 28.6285V20.1312C67.3124 21.2908 65.925 21.8706 64.2028 21.8706C62.3658 21.8706 60.8445 21.2813 59.6389 20.1027C58.4525 18.9051 57.8593 17.1087 57.8593 14.7134ZM60.5287 14.7134C60.5287 15.721 60.6914 16.6144 61.0167 17.3938C61.3611 18.1542 61.8204 18.753 62.3945 19.1902C62.9877 19.6084 63.6383 19.8175 64.3463 19.8175C65.418 19.8175 66.2695 19.5229 66.901 18.9336C67.5516 18.3443 68.0396 17.6694 68.3649 16.9091V12.2042L68.4223 9.21016C67.5612 8.92502 66.5948 8.78244 65.5232 8.78244C64.5664 8.78244 63.7053 9.02007 62.9399 9.49531C62.1936 9.95154 61.6003 10.6264 61.1602 11.5198C60.7392 12.4133 60.5287 13.4778 60.5287 14.7134Z" fill="#2f464c" />
    <path d="M88.2501 6.98604V21.6425H86.0399L85.7242 19.6179C84.4421 21.1387 82.7773 21.8991 80.7297 21.8991C79.0649 21.8991 77.8115 21.4619 76.9695 20.5874C76.1275 19.694 75.7066 18.3918 75.7066 16.6809V6.98604H78.4047V16.4813C78.4047 17.6409 78.6248 18.4869 79.0649 19.0191C79.5242 19.5324 80.2513 19.789 81.2464 19.789C82.1458 19.789 82.9686 19.5894 83.7149 19.1902C84.4612 18.772 85.0736 18.2017 85.552 17.4793V6.98604H88.2501Z" fill="#2f464c" />
    <path d="M91.8583 17.6789C91.8583 16.1202 92.4898 14.913 93.7527 14.0576C95.0157 13.2022 96.8049 12.7745 99.1204 12.7745H101.302V12.2042C101.302 10.9876 101.044 10.1226 100.527 9.60936C100.029 9.0961 99.1682 8.83947 97.9435 8.83947C97.1589 8.83947 96.4605 8.91551 95.8481 9.06759C95.2358 9.20066 94.4512 9.4763 93.4944 9.89451L92.6907 8.04107C94.4895 7.16663 96.2595 6.72941 98.0009 6.72941C100.087 6.72941 101.608 7.17613 102.565 8.06959C103.522 8.94403 104 10.3412 104 12.2612V21.6425H101.905C101.885 21.5664 101.847 21.3858 101.79 21.1007C101.732 20.7965 101.646 20.4068 101.531 19.9316C100.154 21.3003 98.5463 21.9846 96.7092 21.9846C95.2358 21.9846 94.0589 21.5949 93.1787 20.8155C92.2984 20.0361 91.8583 18.9906 91.8583 17.6789ZM94.5564 17.6219C94.5564 18.3443 94.7861 18.9051 95.2453 19.3043C95.7046 19.6845 96.3648 19.8746 97.2259 19.8746C97.9913 19.8746 98.7376 19.7035 99.4648 19.3613C100.192 19.0001 100.804 18.5154 101.302 17.9071V14.7705H99.2926C97.7234 14.7705 96.537 15.0081 95.7333 15.4833C94.9487 15.9586 94.5564 16.6714 94.5564 17.6219Z" fill="#2f464c" />
  </mask>
  <g mask="url(#mask0_1201_251)">
    <rect x="-6.72522" y="-3.01465" width="113.127" height="19.1047" fill="#2f464c" />
  </g>
</svg>
