<svg viewBox="0 0 425 425" fill="none" xmlns="http://www.w3.org/2000/svg">
  <path d="M111.501 209.872L112.15 214.039C114.277 210.909 117.073 209.344 120.538 209.344C121.641 209.344 122.94 209.54 124.437 209.931L123.551 214.861C121.857 214.47 120.538 214.274 119.593 214.274C117.939 214.274 116.561 214.607 115.458 215.272C114.395 215.898 113.43 216.974 112.564 218.5V240.04H107.011V209.872H111.501Z" fill="#2f464c" />
  <path d="M128.012 224.897C128.012 219.967 129.253 216.152 131.734 213.452C134.215 210.713 137.72 209.344 142.248 209.344C146.698 209.344 149.908 210.674 151.877 213.335C153.885 215.956 154.889 219.752 154.889 224.721V225.66H133.683C133.762 229.064 134.569 231.666 136.105 233.466C137.641 235.266 139.846 236.166 142.721 236.166C144.296 236.166 145.812 235.99 147.269 235.638C148.726 235.246 150.341 234.66 152.113 233.877L153.708 237.633C151.699 238.651 149.789 239.394 147.978 239.864C146.167 240.294 144.316 240.509 142.425 240.509C137.857 240.509 134.313 239.14 131.793 236.401C129.273 233.662 128.012 229.827 128.012 224.897ZM142.248 213.687C139.925 213.687 138.054 214.352 136.637 215.683C135.258 217.013 134.353 218.969 133.919 221.552H149.041C148.766 218.852 148.076 216.876 146.974 215.624C145.871 214.333 144.296 213.687 142.248 213.687Z" fill="#2f464c" />
  <path d="M176.099 209.344C180.313 209.344 183.581 210.655 185.905 213.276C188.267 215.859 189.449 219.576 189.449 224.428C189.449 229.475 188.051 233.427 185.255 236.283C182.498 239.101 178.698 240.509 173.854 240.509C171.57 240.509 169.463 240.235 167.534 239.687V254.419H161.981V209.872H166.471L167.179 213.511C168.243 212.142 169.523 211.105 171.019 210.4C172.555 209.696 174.248 209.344 176.099 209.344ZM173.795 236.166C176.906 236.166 179.348 235.149 181.12 233.114C182.892 231.04 183.778 228.145 183.778 224.428C183.778 220.984 183.069 218.343 181.652 216.504C180.273 214.626 178.304 213.687 175.745 213.687C173.736 213.687 172.003 214.215 170.546 215.272C169.129 216.328 168.125 217.795 167.534 219.674V235.286C169.542 235.873 171.629 236.166 173.795 236.166Z" fill="#2f464c" />
  <path d="M197.175 195.493H202.609V240.04H197.175V195.493Z" fill="#2f464c" />
  <path d="M212.75 198.486H218.184V203.592H212.75V198.486ZM212.75 209.872H218.184V240.04H212.75V209.872Z" fill="#2f464c" />
  <path d="M226.08 225.778C226.08 222.53 226.691 219.674 227.912 217.209C229.172 214.744 230.983 212.826 233.346 211.457C235.748 210.048 238.583 209.344 241.852 209.344C246.066 209.344 249.866 210.087 253.252 211.574V254.478L247.7 254.419V236.929C245.534 239.316 242.679 240.509 239.135 240.509C235.354 240.509 232.224 239.296 229.743 236.87C227.301 234.405 226.08 230.708 226.08 225.778ZM231.574 225.778C231.574 227.851 231.909 229.69 232.578 231.295C233.287 232.86 234.232 234.092 235.413 234.992C236.634 235.853 237.973 236.283 239.43 236.283C241.635 236.283 243.388 235.677 244.687 234.464C246.026 233.251 247.03 231.862 247.7 230.297V220.613L247.818 214.45C246.046 213.863 244.057 213.57 241.852 213.57C239.883 213.57 238.111 214.059 236.536 215.037C235 215.976 233.779 217.365 232.873 219.204C232.007 221.043 231.574 223.234 231.574 225.778Z" fill="#2f464c" />
  <path d="M288.622 209.872V240.04H284.074L283.424 235.873C280.785 239.003 277.359 240.568 273.146 240.568C269.72 240.568 267.14 239.668 265.408 237.868C263.675 236.029 262.808 233.349 262.808 229.827V209.872H268.361V229.416C268.361 231.803 268.814 233.544 269.72 234.64C270.665 235.696 272.161 236.225 274.209 236.225C276.06 236.225 277.753 235.814 279.289 234.992C280.825 234.131 282.085 232.958 283.069 231.471V209.872H288.622Z" fill="#2f464c" />
  <path d="M296.047 231.881C296.047 228.673 297.347 226.188 299.946 224.428C302.545 222.667 306.227 221.787 310.992 221.787H315.481V220.613C315.481 218.109 314.95 216.328 313.886 215.272C312.862 214.215 311.09 213.687 308.57 213.687C306.955 213.687 305.518 213.844 304.258 214.157C302.998 214.431 301.383 214.998 299.414 215.859L297.76 212.044C301.462 210.244 305.105 209.344 308.688 209.344C312.981 209.344 316.111 210.263 318.08 212.102C320.049 213.902 321.034 216.778 321.034 220.73V240.04H316.722C316.682 239.883 316.604 239.511 316.485 238.924C316.367 238.298 316.19 237.496 315.954 236.518C313.118 239.335 309.81 240.744 306.03 240.744C302.998 240.744 300.576 239.942 298.764 238.338C296.953 236.733 296.047 234.581 296.047 231.881ZM301.6 231.764C301.6 233.251 302.072 234.405 303.017 235.227C303.963 236.009 305.321 236.401 307.093 236.401C308.668 236.401 310.204 236.049 311.701 235.344C313.197 234.601 314.457 233.603 315.481 232.351V225.895H311.346C308.117 225.895 305.676 226.384 304.022 227.362C302.407 228.34 301.6 229.808 301.6 231.764Z" fill="#2f464c" />
  <mask id="mask0_1272_196" style="mask-type:alpha" maskUnits="userSpaceOnUse" x="107" y="170" width="215" height="60">
    <path d="M111.5 184.466L112.15 188.633C114.276 185.503 117.072 183.938 120.538 183.938C121.64 183.938 122.94 184.134 124.436 184.525L123.55 189.455C121.857 189.064 120.538 188.868 119.593 188.868C117.939 188.868 116.56 189.201 115.458 189.866C114.394 190.492 113.43 191.568 112.563 193.094V214.634H107.011V184.466H111.5Z" fill="#2f464c" />
    <path d="M128.012 199.491C128.012 194.561 129.252 190.746 131.733 188.047C134.214 185.308 137.719 183.938 142.248 183.938C146.698 183.938 149.907 185.268 151.876 187.929C153.885 190.551 154.889 194.346 154.889 199.315V200.254H133.683C133.761 203.659 134.569 206.261 136.104 208.06C137.64 209.86 139.846 210.76 142.72 210.76C144.296 210.76 145.812 210.584 147.269 210.232C148.726 209.841 150.34 209.254 152.112 208.471L153.707 212.228C151.699 213.245 149.789 213.988 147.978 214.458C146.166 214.888 144.315 215.103 142.425 215.103C137.857 215.103 134.313 213.734 131.792 210.995C129.272 208.256 128.012 204.422 128.012 199.491ZM142.248 188.281C139.924 188.281 138.054 188.946 136.636 190.277C135.258 191.607 134.352 193.564 133.919 196.146H149.041C148.765 193.446 148.076 191.47 146.973 190.218C145.871 188.927 144.296 188.281 142.248 188.281Z" fill="#2f464c" />
    <path d="M176.098 183.938C180.312 183.938 183.581 185.249 185.904 187.87C188.267 190.453 189.448 194.17 189.448 199.022C189.448 204.069 188.05 208.021 185.254 210.878C182.498 213.695 178.698 215.103 173.854 215.103C171.57 215.103 169.463 214.83 167.533 214.282V229.013H161.981V184.466H166.47L167.179 188.105C168.242 186.736 169.522 185.699 171.018 184.995C172.554 184.29 174.248 183.938 176.098 183.938ZM173.795 210.76C176.906 210.76 179.347 209.743 181.119 207.708C182.892 205.634 183.778 202.739 183.778 199.022C183.778 195.579 183.069 192.938 181.651 191.099C180.273 189.22 178.304 188.281 175.744 188.281C173.736 188.281 172.003 188.81 170.546 189.866C169.128 190.922 168.124 192.39 167.533 194.268V209.88C169.542 210.467 171.629 210.76 173.795 210.76Z" fill="#2f464c" />
    <path d="M197.174 170.087H202.609V214.634H197.174V170.087Z" fill="#2f464c" />
    <path d="M212.749 173.08H218.184V178.186H212.749V173.08ZM212.749 184.466H218.184V214.634H212.749V184.466Z" fill="#2f464c" />
    <path d="M226.08 200.372C226.08 197.124 226.69 194.268 227.911 191.803C229.171 189.338 230.983 187.421 233.345 186.051C235.748 184.642 238.583 183.938 241.852 183.938C246.065 183.938 249.865 184.682 253.252 186.168V229.072L247.699 229.013V211.523C245.534 213.91 242.678 215.103 239.134 215.103C235.354 215.103 232.223 213.89 229.742 211.465C227.301 208.999 226.08 205.302 226.08 200.372ZM231.573 200.372C231.573 202.446 231.908 204.285 232.578 205.889C233.286 207.454 234.232 208.686 235.413 209.586C236.634 210.447 237.973 210.878 239.43 210.878C241.635 210.878 243.387 210.271 244.687 209.058C246.026 207.845 247.03 206.456 247.699 204.891V195.207L247.818 189.044C246.045 188.457 244.057 188.164 241.852 188.164C239.883 188.164 238.11 188.653 236.535 189.631C234.999 190.57 233.779 191.959 232.873 193.798C232.007 195.637 231.573 197.828 231.573 200.372Z" fill="#2f464c" />
    <path d="M288.621 184.466V214.634H284.073L283.423 210.467C280.785 213.597 277.359 215.162 273.145 215.162C269.719 215.162 267.14 214.262 265.407 212.462C263.674 210.623 262.808 207.943 262.808 204.422V184.466H268.36V204.011C268.36 206.397 268.813 208.139 269.719 209.234C270.664 210.291 272.161 210.819 274.208 210.819C276.059 210.819 277.753 210.408 279.288 209.586C280.824 208.726 282.084 207.552 283.069 206.065V184.466H288.621Z" fill="#2f464c" />
    <path d="M296.047 206.476C296.047 203.267 297.346 200.783 299.945 199.022C302.544 197.261 306.226 196.381 310.991 196.381H315.481V195.207C315.481 192.703 314.949 190.922 313.886 189.866C312.862 188.81 311.09 188.281 308.57 188.281C306.955 188.281 305.518 188.438 304.257 188.751C302.997 189.025 301.383 189.592 299.414 190.453L297.76 186.638C301.461 184.838 305.104 183.938 308.688 183.938C312.98 183.938 316.111 184.858 318.08 186.697C320.049 188.497 321.033 191.372 321.033 195.324V214.634H316.721C316.682 214.477 316.603 214.106 316.485 213.519C316.367 212.893 316.19 212.091 315.953 211.112C313.118 213.93 309.81 215.338 306.03 215.338C302.997 215.338 300.575 214.536 298.764 212.932C296.952 211.328 296.047 209.176 296.047 206.476ZM301.599 206.358C301.599 207.845 302.072 208.999 303.017 209.821C303.962 210.604 305.321 210.995 307.093 210.995C308.668 210.995 310.204 210.643 311.7 209.939C313.197 209.195 314.457 208.197 315.481 206.945V200.489H311.346C308.117 200.489 305.675 200.978 304.021 201.956C302.407 202.935 301.599 204.402 301.599 206.358Z" fill="#2f464c" />
  </mask>
  <g mask="url(#mask0_1272_196)">
    <rect x="93.1705" y="163.882" width="232.805" height="39.3234" fill="#2f464c" />
  </g>
  <circle cx="212.5" cy="212.5" r="211.5" stroke="#2f464c" stroke-width="2" />
</svg>
